<svg width="420" height="402" viewBox="0 0 420 402" fill="none" xmlns="http://www.w3.org/2000/svg">
<path d="M5.326 130.85H95.337V401.722H5.326V130.85ZM50.934 0.278076C20.127 0.278076 0 20.5031 0 47.0491C0 73.0491 19.538 93.8621 49.756 93.8621H50.33C81.726 93.8621 101.278 73.0481 101.278 47.0491C100.689 20.5031 81.727 0.278076 50.934 0.278076ZM316.339 124.487C268.56 124.487 247.155 150.767 235.214 169.197V130.85H145.176C146.368 156.261 145.176 401.722 145.176 401.722H235.214V250.448C235.214 242.346 235.803 234.274 238.172 228.47C244.691 212.296 259.505 195.547 284.354 195.547C316.956 195.547 329.976 220.398 329.976 256.795V401.721H420V246.398C420 163.199 375.598 124.487 316.339 124.487Z" fill="white"/>
</svg>
