<svg width="401" height="97" viewBox="0 0 401 97" fill="none" xmlns="http://www.w3.org/2000/svg">
<path d="M38.5202 97C30.7908 97 24.0329 95.4453 18.2464 92.3359C12.4599 89.1845 7.96168 84.7096 4.75166 78.911C1.58389 73.0704 0 66.1373 0 58.1118C0 50.4224 1.24599 43.1111 3.73798 36.178C6.22996 29.2029 9.77787 23.0052 14.3817 17.5848C18.9855 12.1644 24.5186 7.8995 30.9809 4.79012C37.4854 1.63873 44.7079 0.0630279 52.6485 0.0630279C58.2237 0.0630279 63.2922 0.861382 67.8538 2.45809C72.4154 4.0548 76.3223 6.36582 79.5745 9.39116C82.8268 12.4165 85.2977 16.0511 86.9871 20.295C88.7189 24.5389 89.5425 29.329 89.458 34.6654H69.8178C69.6911 31.8921 69.2054 29.4341 68.3606 27.2911C67.5159 25.1061 66.3332 23.2783 64.8127 21.8077C63.2922 20.295 61.4549 19.1605 59.3008 18.4042C57.1889 17.6058 54.7814 17.2066 52.0782 17.2066C46.7564 17.2066 42.0681 18.4042 38.0133 20.7992C34.0008 23.1523 30.6007 26.3037 27.8131 30.2534C25.0677 34.2032 22.9769 38.5941 21.5409 43.4263C20.1471 48.2164 19.4501 53.0485 19.4501 57.9227C19.4501 62.5027 20.2104 66.4315 21.7309 69.7089C23.2515 72.9864 25.5112 75.5075 28.51 77.2723C31.5511 78.995 35.2679 79.8564 39.6606 79.8564C42.5749 79.8564 45.3414 79.4782 47.9601 78.7219C50.5788 77.9656 52.9863 76.8311 55.1827 75.3184C57.379 73.8057 59.3219 71.9779 61.0114 69.835C62.7009 67.692 64.0736 65.2549 65.1295 62.5237H84.8331C83.2281 67.734 80.9261 72.4611 77.9273 76.705C74.9285 80.9489 71.4017 84.5835 67.3469 87.6088C63.2922 90.6342 58.8151 92.9662 53.9156 94.6049C49.0583 96.2017 43.9265 97 38.5202 97Z" fill="#FFF94D"/>
<path d="M111.224 58.4899L105.079 95.4873H86.3891L102.038 1.5757H120.728L113.252 46.2625H109.767C111.879 42.3548 114.181 39.0143 116.673 36.2411C119.207 33.4258 122.079 31.2829 125.289 29.8122C128.499 28.2995 132.132 27.5432 136.187 27.5432C140.959 27.5432 144.993 28.5727 148.287 30.6316C151.582 32.6485 153.926 35.6108 155.32 39.5185C156.756 43.4263 157.009 48.1954 156.08 53.8259L149.111 95.4873H130.485L136.883 57.2294C137.601 52.7754 137.074 49.3929 135.3 47.0819C133.568 44.7288 130.738 43.5523 126.81 43.5523C124.233 43.5523 121.868 44.0775 119.714 45.128C117.602 46.1785 115.786 47.8172 114.266 50.0442C112.787 52.2292 111.774 55.0444 111.224 58.4899Z" fill="#FFF94D"/>
<path d="M184.245 96.8739C178.417 96.8739 173.56 95.4243 169.674 92.525C165.83 89.6257 163.148 85.5709 161.628 80.3606C160.107 75.1503 159.917 69.0786 161.057 62.1456C162.198 55.2965 164.415 49.2879 167.71 44.1196C171.004 38.9093 175.059 34.8545 179.874 31.9552C184.689 29.0139 189.947 27.5432 195.649 27.5432C198.564 27.5432 201.204 27.9424 203.569 28.7407C205.934 29.4971 207.962 30.6526 209.651 32.2073C211.383 33.72 212.734 35.6318 213.706 37.9428H213.959L215.48 28.9298H233.663L222.576 95.4873H204.393L206.04 85.5289H205.85C204.16 88.05 202.175 90.151 199.894 91.8317C197.656 93.5125 195.206 94.773 192.545 95.6134C189.926 96.4538 187.16 96.8739 184.245 96.8739ZM191.595 81.7472C194.72 81.7472 197.592 80.9489 200.211 79.3522C202.872 77.7135 205.089 75.4234 206.863 72.4821C208.68 69.5408 209.904 66.0953 210.538 62.1456C211.214 58.1538 211.129 54.7083 210.285 51.809C209.482 48.8677 208.025 46.5987 205.913 45.002C203.843 43.3632 201.246 42.5439 198.12 42.5439C195.122 42.5439 192.355 43.3212 189.821 44.8759C187.329 46.4306 185.217 48.6576 183.485 51.5569C181.796 54.4561 180.592 57.9857 179.874 62.1456C179.198 66.3054 179.219 69.856 179.937 72.7973C180.698 75.6966 182.07 77.9236 184.055 79.4782C186.083 80.9909 188.596 81.7472 191.595 81.7472Z" fill="#FFF94D"/>
<path d="M231.924 95.4873L243.012 28.9298H261.005L259.104 40.2749H259.294C261.195 36.2831 263.602 33.3208 266.516 31.3879C269.473 29.4551 273.169 28.4886 277.604 28.4886C278.702 28.4886 279.694 28.5096 280.581 28.5517C281.511 28.5517 282.334 28.5727 283.052 28.6147L280.455 44.4347C279.779 44.3927 278.66 44.3297 277.097 44.2456C275.576 44.1616 274.035 44.1196 272.472 44.1196C269.938 44.1196 267.551 44.7078 265.313 45.8843C263.116 47.0188 261.258 48.7206 259.737 50.9896C258.217 53.2586 257.182 56.0739 256.633 59.4354L250.614 95.4873H231.924Z" fill="#FFF94D"/>
<path d="M310.901 1.5757L295.252 95.4873H276.562L292.211 1.5757H310.901Z" fill="#FFF94D"/>
<path d="M304.601 95.4873L315.688 28.9298H334.378L323.291 95.4873H304.601ZM326.458 19.9799C323.586 19.9799 321.305 19.0134 319.616 17.0806C317.927 15.1477 317.314 12.7947 317.779 10.0214C318.243 7.2062 319.637 4.83214 321.96 2.89929C324.325 0.966429 326.944 0 329.816 0C332.731 0 335.032 0.966429 336.722 2.89929C338.411 4.83214 339.024 7.2062 338.559 10.0214C338.095 12.7947 336.68 15.1477 334.314 17.0806C331.991 19.0134 329.373 19.9799 326.458 19.9799Z" fill="#FFF94D"/>
<path d="M364.381 97C357.918 97 352.364 95.8445 347.718 93.5335C343.072 91.1804 339.608 87.6509 337.328 82.9448C335.089 78.1967 334.329 72.251 335.047 65.1079C335.511 59.3513 336.821 54.162 338.975 49.54C341.129 44.8759 343.959 40.9051 347.465 37.6277C351.012 34.3082 355.088 31.7871 359.692 30.0643C364.296 28.2995 369.301 27.4172 374.707 27.4172C379.691 27.4172 384.169 28.1735 388.139 29.6862C392.109 31.1988 395.235 33.4888 397.515 36.5562C399.839 39.5815 401 43.3632 401 47.9012C401 52.6073 399.691 56.389 397.072 59.2463C394.453 62.0615 390.631 64.1835 385.605 65.6121C380.621 66.9987 374.496 67.9441 367.232 68.4484C359.967 68.9106 351.688 69.1417 342.396 69.1417L344.36 57.0403C352.427 57.0403 359.016 56.8512 364.127 56.473C369.28 56.0949 373.271 55.5486 376.101 54.8343C378.931 54.12 380.874 53.1956 381.93 52.0611C383.028 50.9266 383.577 49.624 383.577 48.1533C383.577 46.0524 382.648 44.4137 380.79 43.2372C378.973 42.0607 376.312 41.4724 372.807 41.4724C368.963 41.4724 365.795 42.1657 363.303 43.5523C360.854 44.9389 358.911 46.8088 357.475 49.1618C356.081 51.4728 355.067 54.078 354.434 56.9773C353.8 59.8345 353.378 62.7968 353.167 65.8642C352.955 69.0996 353.082 72.0199 353.547 74.6251C354.054 77.2302 355.236 79.2892 357.095 80.8018C358.995 82.3145 361.91 83.0708 365.838 83.0708C369.935 83.0708 373.271 82.2515 375.848 80.6127C378.424 78.932 380.24 76.768 381.296 74.1209H398.783C396.375 80.9699 392.257 86.4953 386.428 90.6972C380.6 94.8991 373.25 97 364.381 97Z" fill="#FFF94D"/>
</svg>
