<svg width="90" height="90" viewBox="0 0 90 90" fill="none" xmlns="http://www.w3.org/2000/svg">
<path fill-rule="evenodd" clip-rule="evenodd" d="M76.2555 18.6827C79.6977 19.6086 82.4082 22.3373 83.3282 25.8014C85 32.0809 85 45.1818 85 45.1818C85 45.1818 85 58.2832 83.3282 64.5627C82.4082 68.0268 79.6977 70.755 76.2555 71.6813C70.0168 73.3636 45 73.3636 45 73.3636C45 73.3636 19.9832 73.3636 13.7441 71.6813C10.3023 70.755 7.59136 68.0268 6.67136 64.5627C5 58.2832 5 45.1818 5 45.1818C5 45.1818 5 32.0809 6.67136 25.8014C7.59136 22.3373 10.3023 19.6086 13.7441 18.6827C19.9832 17 45 17 45 17C45 17 70.0168 17 76.2555 18.6827ZM57.7216 45.1821L36.8125 57.0766V33.2871L57.7216 45.1821Z" fill="white"/>
</svg>
